<svg width="355" height="276" viewBox="0 0 355 276" fill="none" xmlns="http://www.w3.org/2000/svg">
<path fill-rule="evenodd" clip-rule="evenodd" d="M0.499939 35.6087V240.478C0.499939 240.478 0.546781 256.335 10.413 266.087C20.1646 275.725 32.7174 276 32.7174 276H354.478V264.022H330.109V251.63H344.978V239.239H330.109V226.848H354.478V214.87H330.109V202.478H344.978V190.087H330.109V177.696H354.478V165.304H330.109V152.913H344.978V140.522H330.109V128.543H354.478V116.152H330.109V103.761H344.978V91.3696H330.109V79.3913H354.478V67H71.9565V35.6087C71.9565 35.6087 71.9566 0.5 36.0217 0.5C0.913033 0.5 0.499939 35.6087 0.499939 35.6087ZM36.0217 13.3043C12.8913 13.3043 12.8913 35.6087 12.8913 35.6087V212.391C12.8913 212.391 21.9783 204.543 36.4348 204.543C50.8913 204.543 59.5652 212.391 59.5652 212.391V35.6087C59.5652 35.6087 59.1522 13.3043 36.0217 13.3043ZM36.4348 216.935C23.4326 216.82 12.8913 225.196 12.8913 240.478C12.8913 255.761 23.4326 264.137 36.4348 264.022C49.3234 263.908 59.5652 256.174 59.5652 240.478C59.5652 224.783 49.3234 217.049 36.4348 216.935ZM71.9565 226.848H317.717V264.022H63.6956C70.7111 255.752 72.4968 247.584 71.9565 226.848ZM71.9565 214.87V177.696H317.717V214.87H71.9565ZM71.9565 128.543V165.304H317.717V128.543H71.9565ZM317.717 79.3913H71.9565V116.152H317.717V79.3913Z" fill="black"/>
<path d="M317.717 79.3913H71.9565V116.152H317.717V79.3913Z" fill="white"/>
<path d="M71.9565 165.304V128.543H317.717V165.304H71.9565Z" fill="white"/>
<path d="M71.9565 214.87V177.696H317.717V214.87H71.9565Z" fill="white"/>
<path d="M317.717 226.848H71.9565C72.4967 247.584 70.711 255.752 63.6956 264.022H317.717V226.848Z" fill="white"/>
<path d="M36.4348 216.935C23.4326 216.82 12.8913 225.196 12.8913 240.478C12.8913 255.761 23.4326 264.137 36.4348 264.022C49.3234 263.908 59.5652 256.174 59.5652 240.478C59.5652 224.783 49.3234 217.049 36.4348 216.935Z" fill="white"/>
<path d="M12.8913 35.1957V212.391C12.8913 212.391 21.9783 204.543 36.4348 204.543C50.8913 204.543 59.5652 212.391 59.5652 212.391V35.1957C59.5652 35.1957 59.1522 13.3043 36.0217 13.3043C12.8913 13.3043 12.8913 35.1957 12.8913 35.1957Z" fill="white"/>
<path d="M141.767 196.937C113.67 196.937 113.449 220.918 113.449 220.918C113.449 220.918 113.449 244.456 139.703 244.456C165.957 244.456 166.957 220.918 166.957 220.918V117.391H155.391V200.826C152.137 198.301 148.774 196.937 141.767 196.937Z" fill="black"/>
<path d="M244.21 172.705C214.279 172.705 214.043 147.292 214.043 147.292C214.043 147.292 214.043 122.348 242.011 122.348C269.979 122.348 271.043 147.292 271.043 147.292V245.435H259.603V167.708C256.137 170.384 251.675 172.705 244.21 172.705Z" fill="black"/>
</svg>
